[img]http://imageshack.us/a/img268/1140/menxb.jpg[/img]

[b][size=200]Plot[/size][/b]

[b][color=black]Agent J travels in time to MIB's early years in the 1960s, to stop an alien from assassinating his friend Agent K and changing history. [/color][/b]

[url="http://www.imdb.com/title/tt1409024/"][size=200]IMDB[/size][/url]

[b][color=black]Men In Black 3 [2012] DvdRip x264 AAC -Sebastian[Ub3r]

Format                           : MPEG-4
Format profile                   : Base Media / Version 2
Codec ID                         : mp42
File size                        : 373 MiB
Duration                         : 1h 45mn
Overall bit rate                 : 493 Kbps
Encoded date                     : UTC 2012-10-11 10:23:25
Tagged date                      : UTC 2012-10-11 10:43:02

Video
ID                               : 1
Format                           : AVC
Format/Info                      : Advanced Video Codec
Format profile                   : Main@L2.2
Format settings, CABAC           : Yes
Format settings, ReFrames        : 4 frames
Codec ID                         : avc1
Codec ID/Info                    : Advanced Video Coding
Duration                         : 1h 45mn
Bit rate mode                    : Variable
Bit rate                         : 380 Kbps
Width                            : 640 pixels
Height                           : 336 pixels
Display aspect ratio             : 1.905
Frame rate mode                  : Variable
Frame rate                       : 23.976 fps
Minimum frame rate               : 23.974 fps
Maximum frame rate               : 23.981 fps
Color space                      : YUV
Chroma subsampling               : 4:2:0
Bit depth                        : 8 bits
Scan type                        : Progressive
Bits/(Pixel*Frame)               : 0.074
Stream size                      : 284 MiB (76%)
Writing library                  : x264 core 120
Encoded date                     : UTC 2012-10-11 10:23:25
Tagged date                      : UTC 2012-10-11 10:42:57

Audio
ID                               : 2
Format                           : AAC
Format/Info                      : Advanced Audio Codec
Format profile                   : LC
Codec ID                         : 40
Duration                         : 1h 45mn
Bit rate mode                    : Variable
Bit rate                         : 112 Kbps
Maximum bit rate                 : 126 Kbps
Channel(s)                       : 2 channels
Channel positions                : Front: L R
Sampling rate                    : 48.0 KHz
Compression mode                 : Lossy
Stream size                      : 84.8 MiB (23%)
Encoded date                     : UTC 2012-10-11 10:23:25
Tagged date                      : UTC 2012-10-11 10:42:55

SOURCE:Men in Black 3[2012]DVDRip XviD-ETRG (Thanks)

SCREENSHOTS[/color][/b]
[img]http://imageshack.us/a/img40/1292/meninblack32012dvdripx2.jpg[/img]

[img]http://kastatic.com/i2/users/133df62bbf28e62494bb17fe11078f1a.gif[/img][img]http://kastatic.com/i2/users/133df62bbf28e62494bb17fe11078f1a.gif[/img]